PathFileType	4	(X/Y/Z)	F:/Ayumi_testdata/Ayumi_25_09_2024/new_static/static_00.trc																																																																																																																																																																																																				
DataRate	CameraRate	NumFrames	NumMarkers	Units	OrigDataRate	OrigDataStartFrame	OrigNumFrames																																																																																																																																																																																																
200	200	4	66	mm	200	1	295																																																																																																																																																																																																
Frame#	Time	LASI			RASI			RSACR			LSACR			USACR			LBAR			RBAR			RHEE			RMT1			RMT5			RMT2			LHEE			LMT1			LMT5			LMT2			LMMAL			LMFC			LLFC			LLMAL			LTIB4			LTIB2			LTIB3			LTIB1			RMMAL			RMFC			RLFC			RLMAL			RTIB1			RTIB2			RTIB3			RTHI1			RTHI4			RTHI3			RTHI2			LTHI1			LTHI4			LTHI3			LTHI2			FHD			LBHD			RBHD			C7			T10			CLAV			LSHO			RSHO			LRAD			LUL			LRFIN			RRAD			RUL			RUFIN			RLEP			RMEP			LLEP			LMEP			LDUPA			LMUPA			LUUPA			RDUPA			RUUPA			RMUPA			LKJC			RKJC			LAJC			RAJC		
		X1	Y1	Z1	X2	Y2	Z2	X3	Y3	Z3	X4	Y4	Z4	X5	Y5	Z5	X6	Y6	Z6	X7	Y7	Z7	X8	Y8	Z8	X9	Y9	Z9	X10	Y10	Z10	X11	Y11	Z11	X12	Y12	Z12	X13	Y13	Z13	X14	Y14	Z14	X15	Y15	Z15	X16	Y16	Z16	X17	Y17	Z17	X18	Y18	Z18	X19	Y19	Z19	X20	Y20	Z20	X21	Y21	Z21	X22	Y22	Z22	X23	Y23	Z23	X24	Y24	Z24	X25	Y25	Z25	X26	Y26	Z26	X27	Y27	Z27	X28	Y28	Z28	X29	Y29	Z29	X30	Y30	Z30	X31	Y31	Z31	X32	Y32	Z32	X33	Y33	Z33	X34	Y34	Z34	X35	Y35	Z35	X36	Y36	Z36	X37	Y37	Z37	X38	Y38	Z38	X39	Y39	Z39	X40	Y40	Z40	X41	Y41	Z41	X42	Y42	Z42	X43	Y43	Z43	X44	Y44	Z44	X45	Y45	Z45	X46	Y46	Z46	X47	Y47	Z47	X48	Y48	Z48	X49	Y49	Z49	X50	Y50	Z50	X51	Y51	Z51	X52	Y52	Z52	X53	Y53	Z53	X54	Y54	Z54	X55	Y55	Z55	X56	Y56	Z56	X57	Y57	Z57	X58	Y58	Z58	X59	Y59	Z59	X60	Y60	Z60	X61	Y61	Z61	X62	Y62	Z62	X63	Y63	Z63	X64	Y64	Z64	X65	Y65	Z65	X66	Y66	Z66
																																																																																																																																																																																																							
1	0	134.7938232	762.621582	918.2092285	130.5614319	984.8362427	918.7698364	310.4422302	912.519165	950.2897339	309.6428833	852.5539551	953.5368652	298.794342	882.5059204	966.6634521	1270.782715	-346.5292969	26.25187683	1226.433716	1876.82251	26.21026802	323.0715942	1019.678467	39.8283577	128.1417236	1043.346313	43.51534653	165.085144	1113.697754	34.82756042	140.1886292	1079.997803	42.71429825	326.302063	745.1392822	45.82972336	134.3985901	736.4482422	46.33902359	169.9229889	662.7554932	33.47448349	143.1711731	698.0458984	45.93396378	276.6877441	778.6686401	72.95643616	233.3777771	829.1577759	456.9185181	219.7996063	721.541687	454.0473633	278.8146667	700.9199219	69.08092499	290.4657593	691.5531006	209.5810242	314.2434082	691.5162354	270.8588257	263.66745	684.5292969	268.151001	301.9515381	687.1844482	314.2812195	275.1387939	994.0387573	68.37391663	235.8438873	935.5298462	446.6020813	221.27034	1041.427612	461.4049377	284.7878723	1068.740479	72.23012543	257.5157776	1082.793945	319.3034058	307.9918518	1077.294067	313.9572449	276.9522095	1081.430176	256.1372986	242.8689423	1060.172607	783.9760132	243.7849121	1066.122314	635.3218994	192.37323	1066.812866	637.1361084	220.2811584	1070.312378	697.1399536	239.4518585	698.9557495	778.9841919	237.2195892	694.8580322	646.8363037	186.5493317	693.6536255	637.586792	201.0890503	689.5050659	701.3205566	132.6006622	775.1414185	1593.374512	243.2831726	786.3544922	1575.834839	254.5781708	909.8614502	1571.322266	264.0314636	857.765686	1391.405884	286.7568054	877.5259399	1007.668823	141.3070221	872.7927246	1329.083496	245.1804199	724.75177	1380.942993	237.6109772	986.8989868	1397.06897	164.4199524	222.6452789	1357.183105	205.05896	222.0205078	1352.801392	150.8973999	130.7161713	1336.529541	242.8243866	1500.843018	1388.356323	289.6739197	1499.821899	1382.057495	237.2961426	1591.009155	1390.432495	294.569458	1271.274048	1329.428589	256.165863	1271.852661	1295.909424	220.6553955	453.8770447	1299.804077	179.7586365	466.8252869	1277.451416	237.0776825	505.7632141	1353.650391	201.2942047	536.3786011	1371.350708	238.5054626	584.8662109	1362.317749	267.5305176	1205.881714	1382.066162	258.1091309	1144.196899	1383.864258	217.2696533	1212.516235	1385.239014	226.5886841	775.3497314	455.4829407	228.5571136	988.4787598	454.0035095	277.7512207	739.7943115	71.01867676	279.9633179	1031.389648	70.30201721
2	0.005	134.7859344	762.6118164	918.1986694	130.5607605	984.8380737	918.767395	310.4334412	912.5038452	950.2923584	309.6296692	852.5562134	953.5531616	298.7824097	882.4927368	966.6671753	1270.780884	-346.5389099	26.25318336	1226.437988	1876.809814	26.20183372	323.0787659	1019.669617	39.83010483	128.1478119	1043.351929	43.50353622	165.0774231	1113.702881	34.83404922	140.189621	1080.004883	42.71792221	326.3034058	745.1445923	45.83044815	134.3995361	736.4503784	46.33623886	169.9240875	662.755249	33.46624374	143.1740265	698.0518799	45.93346405	276.6887512	778.6695557	72.96675873	233.3739929	829.1628418	456.913147	219.8073273	721.5380859	454.0508118	278.7981262	700.9229736	69.08712769	290.4801331	691.5562744	209.567215	314.2147827	691.5074463	270.9229431	263.6673279	684.5256958	268.150238	301.9469299	687.1634521	314.3050232	275.1485901	994.0365601	68.37477112	235.8525238	935.5200806	446.5993347	221.2963715	1041.415894	461.398468	284.7908325	1068.741455	72.22923279	257.5214539	1082.796387	319.3029785	307.9994202	1077.293579	313.964386	276.9642944	1081.425293	256.1430969	242.8627319	1060.176147	783.9854126	243.8092499	1066.140869	635.3410034	192.3769073	1066.827637	637.1634521	220.2935638	1070.319824	697.1700439	239.4403687	698.9471436	778.9885864	237.1667328	695.3878174	646.6360474	186.5374908	693.6507568	637.5876465	201.0852203	689.5006714	701.3170166	132.5636139	775.1430664	1593.380493	243.2278748	786.361145	1575.816284	254.5477905	909.8515625	1571.30835	263.9961853	857.7634277	1391.408691	286.7460327	877.5283203	1007.674011	141.2654419	872.7883911	1329.075928	245.154541	724.7440796	1380.948975	237.5848541	986.8894043	1397.071411	164.4073181	222.6399841	1357.15979	205.0562134	222.0094757	1352.782471	150.9116974	130.6977386	1336.483032	242.7901001	1500.839355	1388.362793	289.6412659	1499.812256	1382.059692	237.2781067	1591.001831	1390.447876	294.5117798	1271.267578	1329.437866	256.1200867	1271.85022	1295.91626	220.627121	453.8901978	1299.791626	179.735199	466.8247681	1277.437012	237.0549011	505.7602234	1353.641113	201.2647858	536.375061	1371.336182	238.5645142	584.8963623	1362.119873	267.4872131	1205.880859	1382.067749	258.0740662	1144.188232	1383.867188	217.2105408	1212.518066	1385.235352	226.5906677	775.3504639	455.4819946	228.5744476	988.4680176	453.9989014	277.7434387	739.7962646	71.02694702	279.9697266	1031.389038	70.30200195
3	0.01	134.7759552	762.6054688	918.1947632	130.5539398	984.8285522	918.7560425	310.4276123	912.5041504	950.3006592	309.6305542	852.5431519	953.5551758	298.7590332	882.4943848	966.663208	1270.782837	-346.5472717	26.25829697	1226.439331	1876.813232	26.20470238	323.0739441	1019.678528	39.83176804	128.1486969	1043.339233	43.49211502	165.0807495	1113.702759	34.82891464	140.1954193	1079.999756	42.71498871	326.3032837	745.144104	45.83320618	134.4004364	736.4368286	46.33134079	169.9271088	662.7484131	33.46887207	143.1735687	698.0426025	45.93376541	276.682312	778.6751099	72.96092224	233.3820648	829.15979	456.9251709	219.8152771	721.5356445	454.0553589	278.8076477	700.9180908	69.09144592	290.4837646	691.5599976	209.5674591	314.2492371	691.5071411	270.8675842	263.6658936	684.5272217	268.1513062	301.9489746	687.1618652	314.2943726	275.1440125	994.0377197	68.38000488	235.8673706	935.5178223	446.5948486	221.3143921	1041.418457	461.4017334	284.7950134	1068.736084	72.2263031	257.5368958	1082.774658	319.2978821	308.0147095	1077.270996	313.9564209	276.9725647	1081.417358	256.1507874	242.8661499	1060.165405	783.9827881	243.8222961	1066.079712	635.3409424	192.3934937	1066.833496	637.1781006	220.1691284	1070.377563	697.2581177	239.4480286	698.9535522	778.987793	237.2032166	694.859436	646.8208618	186.5424194	693.6524658	637.5880737	201.0942688	689.5007324	701.3225708	132.5352478	775.1359863	1593.381226	243.2021942	786.3557129	1575.806274	254.5236816	909.8474121	1571.29248	263.9688416	857.7543945	1391.416992	286.7426453	877.5223999	1007.674377	141.2276306	872.7860718	1329.067505	245.1248627	724.7363281	1380.933838	237.5396118	986.8928833	1397.070435	164.4117737	222.6290131	1357.132202	205.0584564	222.0124664	1352.774414	150.9215851	130.6912689	1336.448486	242.7531433	1500.834473	1388.367798	289.6065063	1499.811401	1382.060791	237.2512665	1591.004272	1390.46521	294.4805603	1271.269531	1329.451904	256.0753479	1271.84082	1295.928955	220.6207428	453.8777466	1299.778809	179.7190094	466.819397	1277.428467	237.0354156	505.7497253	1353.627563	201.2635498	536.361145	1371.338135	238.4631195	584.8723145	1362.317261	267.4291382	1205.881104	1382.076294	258.0299072	1144.182617	1383.873535	217.1864166	1212.494263	1385.23877	226.5986633	775.3477173	455.4902649	228.5908813	988.4681396	453.998291	277.7449951	739.7966309	71.02618408	279.9695129	1031.386963	70.30315399
4	0.015	134.7743073	762.5964355	918.1878052	130.545578	984.826416	918.7497559	310.4167786	912.4924316	950.3081055	309.6306152	852.5412598	953.5596924	298.7609558	882.4816284	966.6790161	1270.789795	-346.5426636	26.27320671	1226.440552	1876.80127	26.19663048	323.0717773	1019.680786	39.81993866	128.1599579	1043.336304	43.4885788	165.0788727	1113.699097	34.82101059	140.1966705	1080.00708	42.71609497	326.29953	745.1450195	45.83655548	134.3973846	736.4490967	46.33170319	169.9225311	662.7506104	33.46986771	143.1728821	698.0404053	45.9307785	276.6887512	778.6687622	72.9575882	233.3888245	829.1529541	456.9244385	219.8144531	721.5274048	454.054657	278.8163757	700.9284668	69.09668732	290.4909058	691.5484009	209.5709076	314.2426758	691.4996948	270.8660278	263.6751709	684.5266113	268.1531677	301.9552612	687.1755371	314.2632141	275.1441345	994.036438	68.37200165	235.8682556	935.5029297	446.6004639	221.3127136	1041.424194	461.4052124	284.7912903	1068.734497	72.21868896	257.53479	1082.785278	319.3119812	308.0267029	1077.265503	313.9674683	276.9856262	1081.405273	256.1347351	242.8723755	1060.159302	783.9805908	243.8310547	1066.09436	635.3328857	192.412262	1066.807617	637.1584473	220.172699	1070.37207	697.2753906	239.4406586	698.9481201	778.9939575	237.1739349	695.3944702	646.6470947	186.5341492	693.6469116	637.5860596	201.0778809	689.5039673	701.3236084	132.5272064	775.1225586	1593.362915	243.1739655	786.3565674	1575.788452	254.4913788	909.8477783	1571.275269	263.9458008	857.7570801	1391.415771	286.730072	877.526123	1007.681335	141.1996155	872.7744141	1329.064697	245.1008148	724.7364502	1380.937988	237.5183563	986.8827515	1397.072754	164.4126434	222.6208496	1357.123169	205.0597382	222.0111084	1352.76001	150.9286804	130.6848755	1336.425415	242.717865	1500.834717	1388.376709	289.5623779	1499.808228	1382.071045	237.2203674	1590.991211	1390.473389	294.4298706	1271.257935	1329.459961	256.037384	1271.836548	1295.940308	220.6001587	453.8777771	1299.763306	179.7058868	466.8227844	1277.414795	237.0178375	505.7441406	1353.615723	201.243866	536.350647	1371.326294	238.5230103	584.8840332	1362.106812	267.3738403	1205.867554	1382.077026	257.9882813	1144.179565	1383.879028	217.1145325	1212.505493	1385.255371	226.6016388	775.34021	455.489563	228.5904846	988.463562	454.0028381	277.7525635	739.798584	71.02713776	279.9677124	1031.385498	70.29534912
